<?xml version="1.0" encoding="UTF-8" standalone="no"?>
<svg
   xmlns:dc="http://purl.org/dc/elements/1.1/"
   xmlns:cc="http://creativecommons.org/ns#"
   xmlns:rdf="http://www.w3.org/1999/02/22-rdf-syntax-ns#"
   xmlns:svg="http://www.w3.org/2000/svg"
   xmlns="http://www.w3.org/2000/svg"
   xmlns:sodipodi="http://sodipodi.sourceforge.net/DTD/sodipodi-0.dtd"
   xmlns:inkscape="http://www.inkscape.org/namespaces/inkscape"
   version="1.1"
   width="24"
   height="24"
   viewBox="0 0 24 24"
   id="svg4"
   sodipodi:docname="Zumen2.svg"
   inkscape:version="0.92.1 r15371"
   inkscape:export-filename="C:\Users\torum\Desktop\path.png"
   inkscape:export-xdpi="1005.5432"
   inkscape:export-ydpi="1005.5432">
  <metadata
     id="metadata10">
    <rdf:RDF>
      <cc:Work
         rdf:about="">
        <dc:format>image/svg+xml</dc:format>
        <dc:type
           rdf:resource="http://purl.org/dc/dcmitype/StillImage" />
        <dc:title></dc:title>
      </cc:Work>
    </rdf:RDF>
  </metadata>
  <defs
     id="defs8" />
  <sodipodi:namedview
     pagecolor="#ffffff"
     bordercolor="#666666"
     borderopacity="1"
     objecttolerance="10"
     gridtolerance="10"
     guidetolerance="10"
     inkscape:pageopacity="0"
     inkscape:pageshadow="2"
     inkscape:window-width="1416"
     inkscape:window-height="993"
     id="namedview6"
     showgrid="false"
     inkscape:zoom="9.8333333"
     inkscape:cx="20.081062"
     inkscape:cy="16.067797"
     inkscape:window-x="1614"
     inkscape:window-y="403"
     inkscape:window-maximized="0"
     inkscape:current-layer="svg4" />
  <path
     style="color:#000000;font-style:normal;font-variant:normal;font-weight:normal;font-stretch:normal;font-size:medium;line-height:normal;font-family:sans-serif;font-variant-ligatures:normal;font-variant-position:normal;font-variant-caps:normal;font-variant-numeric:normal;font-variant-alternates:normal;font-feature-settings:normal;text-indent:0;text-align:start;text-decoration:none;text-decoration-line:none;text-decoration-style:solid;text-decoration-color:#000000;letter-spacing:normal;word-spacing:normal;text-transform:none;writing-mode:lr-tb;direction:ltr;text-orientation:mixed;dominant-baseline:auto;baseline-shift:baseline;text-anchor:start;white-space:normal;shape-padding:0;clip-rule:nonzero;display:inline;overflow:visible;visibility:visible;opacity:1;isolation:auto;mix-blend-mode:normal;color-interpolation:sRGB;color-interpolation-filters:linearRGB;solid-color:#000000;solid-opacity:1;vector-effect:none;fill:#000000;fill-opacity:1;fill-rule:nonzero;stroke:#ffffff;stroke-width:0;stroke-linecap:butt;stroke-linejoin:miter;stroke-miterlimit:4;stroke-dasharray:none;stroke-dashoffset:0;stroke-opacity:1;color-rendering:auto;image-rendering:auto;shape-rendering:auto;text-rendering:auto;enable-background:accumulate"
     d="M 3.9543374,3.1555264 C 2.5507725,3.0998097 1.4976792,4.5676481 1.7498657,5.8735045 c 0.024875,4.5518935 -0.05464,9.1077785 0.041682,13.6571425 0.2358003,1.220232 1.6120947,1.929967 2.7967315,1.720168 5.302673,-0.02444 10.6092348,0.05248 15.9094488,-0.04002 1.200174,-0.220264 1.955814,-1.529207 1.752263,-2.675677 -0.02615,-4.55308 0.05509,-9.1102167 -0.04231,-13.6607303 -0.242884,-1.2580895 -1.673494,-1.9361805 -2.878603,-1.7188671 -5.124912,1.1e-6 -10.2498266,-2.4e-6 -15.3747378,1.8e-6 z"
     id="path4519"
     inkscape:connector-curvature="0" />
  <path
     style="color:#000000;font-style:normal;font-variant:normal;font-weight:normal;font-stretch:normal;font-size:medium;line-height:normal;font-family:sans-serif;font-variant-ligatures:normal;font-variant-position:normal;font-variant-caps:normal;font-variant-numeric:normal;font-variant-alternates:normal;font-feature-settings:normal;text-indent:0;text-align:start;text-decoration:none;text-decoration-line:none;text-decoration-style:solid;text-decoration-color:#000000;letter-spacing:normal;word-spacing:normal;text-transform:none;writing-mode:lr-tb;direction:ltr;text-orientation:mixed;dominant-baseline:auto;baseline-shift:baseline;text-anchor:start;white-space:normal;shape-padding:0;clip-rule:nonzero;display:inline;overflow:visible;visibility:visible;opacity:1;isolation:auto;mix-blend-mode:normal;color-interpolation:sRGB;color-interpolation-filters:linearRGB;solid-color:#000000;solid-opacity:1;vector-effect:none;fill:#ffffff;fill-opacity:1;fill-rule:nonzero;stroke:none;stroke-width:0.91280705;stroke-linecap:butt;stroke-linejoin:miter;stroke-miterlimit:4;stroke-dasharray:none;stroke-dashoffset:0;stroke-opacity:1;color-rendering:auto;image-rendering:auto;shape-rendering:auto;text-rendering:auto;enable-background:accumulate"
     d="m 3.4667969,4.9314423 c 5.688802,0 11.3776041,0 17.0664061,0 0,3.5907826 0,7.1815647 0,10.7723477 -5.688802,0 -11.3776041,0 -17.0664061,0 0,-3.590783 0,-7.1815651 0,-10.7723477 z"
     id="path4513"
     inkscape:connector-curvature="0" />
  <path
     style="display:inline;opacity:1;fill:#0a0a0a;fill-opacity:1;stroke:#ffffff;stroke-width:0;stroke-linecap:round;stroke-linejoin:round;stroke-miterlimit:4;stroke-dasharray:none;stroke-dashoffset:0;stroke-opacity:1"
     d="m 4.5464377,6.1260772 c 1.7826012,0 3.5652024,0 5.3478036,0 0,2.5939146 0,5.1878288 0,7.7817438 -1.7826012,0 -3.5652024,0 -5.3478036,0 0,-2.593915 0,-5.1878292 0,-7.7817438 z"
     id="rect4530"
     inkscape:connector-curvature="0" />
  <path
     style="display:inline;opacity:1;fill:#000000;fill-opacity:1;stroke:none;stroke-width:0;stroke-linecap:round;stroke-linejoin:round;stroke-miterlimit:4;stroke-dasharray:none;stroke-dashoffset:0;stroke-opacity:1"
     d="m 10.983051,12.610171 c 2.915254,0 5.830509,0 8.745763,0 0,0.440677 0,0.881355 0,1.322033 -2.915254,0 -5.830509,0 -8.745763,0 0,-0.440678 0,-0.881356 0,-1.322033 z"
     id="rect4534-9"
     inkscape:connector-curvature="0" />
  <path
     style="display:inline;opacity:1;fill:#ffffff;fill-opacity:1;stroke:#000000;stroke-width:0;stroke-linecap:round;stroke-linejoin:round;stroke-miterlimit:4;stroke-dasharray:none;stroke-dashoffset:0;stroke-opacity:1"
     d="m 3.3651018,17.127518 c 5.6764691,0 11.3529382,0 17.0294072,0 0,0.819873 0,1.639745 0,2.459618 -5.676469,0 -11.3529381,0 -17.0294072,0 0,-0.819873 0,-1.639745 0,-2.459618 z"
     id="rect4534-9-1"
     inkscape:connector-curvature="0" />
  <g
     inkscape:groupmode="layer"
     id="layer1"
     inkscape:label="Layer"
     style="display:inline" />
  <path
     style="display:inline;opacity:1;fill:#000000;fill-opacity:1;stroke:none;stroke-width:0;stroke-linecap:round;stroke-linejoin:round;stroke-miterlimit:4;stroke-dasharray:none;stroke-dashoffset:0;stroke-opacity:1"
     d="m 10.983051,9.4067808 c 2.915254,0 5.830509,0 8.745763,0 0,0.440677 0,0.8813552 0,1.3220332 -2.915254,0 -5.830509,0 -8.745763,0 0,-0.440678 0,-0.8813562 0,-1.3220332 z"
     id="rect4534-9-5"
     inkscape:connector-curvature="0" />
  <path
     style="display:inline;opacity:1;fill:#000000;fill-opacity:1;stroke:none;stroke-width:0;stroke-linecap:round;stroke-linejoin:round;stroke-miterlimit:4;stroke-dasharray:none;stroke-dashoffset:0;stroke-opacity:1"
     d="m 10.983051,6.1525428 c 2.915254,0 5.830509,0 8.745763,0 0,0.4406772 0,0.8813552 0,1.3220332 -2.915254,0 -5.830509,0 -8.745763,0 0,-0.440678 0,-0.881356 0,-1.3220332 z"
     id="rect4534-9-15"
     inkscape:connector-curvature="0" />
</svg>
